<svg xmlns="http://www.w3.org/2000/svg" width="31" height="16" viewBox="0 0 31 16" fill="none">
  <g clip-path="url(#clip0_67_57)">
    <g filter="url(#filter0_d_67_57)">
      <path d="M15.2722 0.442045C16.1071 0.810417 16.9359 1.19107 17.7525 1.60241C18.327 1.88453 18.7922 2.35102 19.0749 2.92855L18.1791 3.36446C17.9719 3.14343 17.7769 2.92855 17.5697 2.70139C17.5026 2.46809 17.4417 2.23478 17.3929 1.99534C16.6698 1.5916 15.8659 1.35661 15.0406 1.30772L15.5708 1.62697L15.0223 2.13041C14.469 2.11437 13.9191 2.03612 13.383 1.89711C13.7935 2.39139 14.3161 2.77886 14.9065 3.02678H13.8401C13.9376 3.14343 14.0412 3.26008 14.1448 3.3706C14.6895 4.08198 15.3768 4.66981 16.1619 5.0958C16.4179 5.25543 16.6677 5.42733 16.9115 5.5931C16.4423 5.64836 15.9669 5.69133 15.4916 5.71589C15.1884 5.69652 14.887 5.65549 14.5897 5.5931C12.9499 5.26677 11.2648 5.24389 9.61689 5.52557C7.24021 5.75887 4.82695 5.8571 2.51121 6.48333L1.86523 6.75347C1.86523 7.04817 1.86523 7.33672 1.86523 7.62528L2.80372 7.95068C2.80372 8.2024 2.80372 8.45412 2.80372 8.70584C5.02196 8.42342 7.27068 8.70584 9.5072 8.33133L9.83628 7.84017C12.7736 8.50937 15.7597 8.141 18.7336 8.06119C19.5583 8.10767 20.3755 8.24353 21.1713 8.4664C20.561 8.92769 19.8131 9.16588 19.0505 9.14174C17.681 9.03353 16.3032 9.11408 14.9553 9.38118C11.0368 9.82323 6.74049 8.31905 3.18155 10.3819C5.57652 9.989 8.01415 10.0627 10.4274 9.93988C11.4817 9.93988 12.5908 9.98286 13.4744 10.6336C13.5598 10.3389 13.6329 10.0197 13.7304 9.73728L13.962 9.6943L14.6628 9.54081C15.2716 9.57968 15.8822 9.57968 16.491 9.54081C16.3021 9.95216 16.1193 10.3696 15.8816 10.7687L15.4916 11.2722C15.778 11.3765 16.0583 11.4993 16.3387 11.6221C16.1863 11.9229 16.04 12.2361 15.8999 12.5308L16.7957 12.2238L17.1492 12.5737L16.491 13.4026C16.491 13.728 16.4544 14.0472 16.4544 14.3603C16.686 14.7226 17.1004 14.4586 17.4051 14.3603C18.2949 13.9306 19.3126 13.9674 20.2267 13.6175C20.5923 13.4824 20.9458 13.3228 21.3053 13.1754C22.3952 12.7682 23.4525 12.2777 24.4681 11.7081C25.4676 11.2722 26.5219 10.7319 27.6493 10.9099C27.7589 10.3389 27.8443 9.76797 27.9357 9.19086L28.5451 9.06193C28.6045 8.49429 28.8151 7.95337 29.1545 7.49635V6.8824C28.1672 4.78882 25.3152 5.11422 23.5845 3.94771C22.2255 3.19869 20.9031 2.37599 19.5076 1.69451L18.8372 1.35069C17.8511 0.870482 16.833 0.460184 15.7902 0.12279L15.4245 0L15.2722 0.442045Z" fill="white"/>
    </g>
  </g>
  <defs>
    <filter id="filter0_d_67_57" x="0.865234" y="0" width="28.2891" height="15.5454" filterUnits="userSpaceOnUse" color-interpolation-filters="sRGB">
      <feFlood flood-opacity="0" result="BackgroundImageFix"/>
      <feColorMatrix in="SourceAlpha" type="matrix" values="0 0 0 0 0 0 0 0 0 0 0 0 0 0 0 0 0 0 127 0" result="hardAlpha"/>
      <feOffset dx="-1" dy="1"/>
      <feComposite in2="hardAlpha" operator="out"/>
      <feColorMatrix type="matrix" values="0 0 0 0 0.0375 0 0 0 0 0.0359375 0 0 0 0 0.0359375 0 0 0 1 0"/>
      <feBlend mode="normal" in2="BackgroundImageFix" result="effect1_dropShadow_67_57"/>
      <feBlend mode="normal" in="SourceGraphic" in2="effect1_dropShadow_67_57" result="shape"/>
    </filter>
    <clipPath id="clip0_67_57">
      <rect width="30" height="16" fill="white" transform="translate(0.5)"/>
    </clipPath>
  </defs>
</svg>