<svg xmlns="http://www.w3.org/2000/svg" width="26" height="26" viewBox="0 0 26 26" fill="none">
  <g filter="url(#filter0_d_334_17271)">
    <path d="M14 0C10.7435 0 10.334 0.015 9.0545 0.072C7.775 0.132 6.9035 0.333 6.14 0.63C5.33914 0.931229 4.61374 1.40374 4.0145 2.0145C3.40411 2.61404 2.93166 3.33936 2.63 4.14C2.333 4.902 2.1305 5.775 2.072 7.05C2.015 8.3325 2 8.7405 2 12.0015C2 15.2595 2.015 15.6675 2.072 16.947C2.132 18.225 2.333 19.0965 2.63 19.86C2.9375 20.649 3.347 21.318 4.0145 21.9855C4.6805 22.653 5.3495 23.064 6.1385 23.37C6.9035 23.667 7.7735 23.8695 9.0515 23.928C10.3325 23.985 10.7405 24 14 24C17.2595 24 17.666 23.985 18.947 23.928C20.2235 23.868 21.098 23.667 21.8615 23.37C22.6618 23.0686 23.3867 22.5961 23.9855 21.9855C24.653 21.318 25.0625 20.649 25.37 19.86C25.6655 19.0965 25.868 18.225 25.928 16.947C25.985 15.6675 26 15.2595 26 12C26 8.7405 25.985 8.3325 25.928 7.0515C25.868 5.775 25.6655 4.902 25.37 4.14C25.0684 3.33934 24.5959 2.61401 23.9855 2.0145C23.3864 1.40351 22.661 0.930968 21.86 0.63C21.095 0.333 20.222 0.1305 18.9455 0.072C17.6645 0.015 17.258 0 13.997 0H14.0015H14ZM12.9245 2.163H14.0015C17.2055 2.163 17.585 2.1735 18.8495 2.232C20.0195 2.2845 20.6555 2.481 21.0785 2.6445C21.638 2.862 22.0385 3.123 22.4585 3.543C22.8785 3.963 23.138 4.362 23.3555 4.923C23.5205 5.3445 23.7155 5.9805 23.768 7.1505C23.8265 8.415 23.8385 8.7945 23.8385 11.997C23.8385 15.1995 23.8265 15.5805 23.768 16.845C23.7155 18.015 23.519 18.6495 23.3555 19.0725C23.1631 19.5935 22.856 20.0647 22.457 20.451C22.037 20.871 21.638 21.1305 21.077 21.348C20.657 21.513 20.021 21.708 18.8495 21.762C17.585 21.819 17.2055 21.8325 14.0015 21.8325C10.7975 21.8325 10.4165 21.819 9.152 21.762C7.982 21.708 7.3475 21.513 6.9245 21.348C6.40325 21.1559 5.93169 20.8494 5.5445 20.451C5.14513 20.0641 4.83758 19.5925 4.6445 19.071C4.481 18.6495 4.2845 18.0135 4.232 16.8435C4.175 15.579 4.163 15.1995 4.163 11.994C4.163 8.79 4.175 8.412 4.232 7.1475C4.286 5.9775 4.481 5.3415 4.646 4.9185C4.8635 4.359 5.1245 3.9585 5.5445 3.5385C5.9645 3.1185 6.3635 2.859 6.9245 2.6415C7.3475 2.4765 7.982 2.2815 9.152 2.2275C10.259 2.1765 10.688 2.1615 12.9245 2.16V2.163ZM20.4065 4.155C20.2174 4.155 20.0301 4.19225 19.8554 4.26461C19.6807 4.33698 19.522 4.44305 19.3883 4.57677C19.2545 4.71048 19.1485 4.86923 19.0761 5.04394C19.0037 5.21864 18.9665 5.4059 18.9665 5.595C18.9665 5.7841 19.0037 5.97135 19.0761 6.14606C19.1485 6.32077 19.2545 6.47952 19.3883 6.61323C19.522 6.74695 19.6807 6.85302 19.8554 6.92539C20.0301 6.99775 20.2174 7.035 20.4065 7.035C20.7884 7.035 21.1547 6.88329 21.4247 6.61323C21.6948 6.34318 21.8465 5.97691 21.8465 5.595C21.8465 5.21309 21.6948 4.84682 21.4247 4.57677C21.1547 4.30671 20.7884 4.155 20.4065 4.155ZM14.0015 5.838C13.1841 5.82525 12.3723 5.97523 11.6135 6.27921C10.8546 6.58319 10.1638 7.03511 9.58123 7.60863C8.99868 8.18216 8.53605 8.86585 8.22026 9.61989C7.90448 10.3739 7.74185 11.1833 7.74185 12.0007C7.74185 12.8182 7.90448 13.6276 8.22026 14.3816C8.53605 15.1356 8.99868 15.8193 9.58123 16.3929C10.1638 16.9664 10.8546 17.4183 11.6135 17.7223C12.3723 18.0263 13.1841 18.1763 14.0015 18.1635C15.6193 18.1383 17.1623 17.4779 18.2975 16.3249C19.4326 15.1719 20.0689 13.6188 20.0689 12.0007C20.0689 10.3827 19.4326 8.82962 18.2975 7.67662C17.1623 6.52363 15.6193 5.86324 14.0015 5.838ZM14.0015 7.9995C15.0625 7.9995 16.08 8.42098 16.8303 9.17122C17.5805 9.92146 18.002 10.939 18.002 12C18.002 13.061 17.5805 14.0785 16.8303 14.8288C16.08 15.579 15.0625 16.0005 14.0015 16.0005C12.9405 16.0005 11.923 15.579 11.1727 14.8288C10.4225 14.0785 10.001 13.061 10.001 12C10.001 10.939 10.4225 9.92146 11.1727 9.17122C11.923 8.42098 12.9405 7.9995 14.0015 7.9995Z" fill="white"/>
  </g>
  <defs>
    <filter id="filter0_d_334_17271" x="0.5" y="0" width="25.5" height="25.5" filterUnits="userSpaceOnUse" color-interpolation-filters="sRGB">
      <feFlood flood-opacity="0" result="BackgroundImageFix"/>
      <feColorMatrix in="SourceAlpha" type="matrix" values="0 0 0 0 0 0 0 0 0 0 0 0 0 0 0 0 0 0 127 0" result="hardAlpha"/>
      <feOffset dx="-1.5" dy="1.5"/>
      <feComposite in2="hardAlpha" operator="out"/>
      <feColorMatrix type="matrix" values="0 0 0 0 0.0375 0 0 0 0 0.0359375 0 0 0 0 0.0359375 0 0 0 1 0"/>
      <feBlend mode="normal" in2="BackgroundImageFix" result="effect1_dropShadow_334_17271"/>
      <feBlend mode="normal" in="SourceGraphic" in2="effect1_dropShadow_334_17271" result="shape"/>
    </filter>
  </defs>
</svg>