<svg width="48" height="80" viewBox="0 0 48 80" fill="none" xmlns="http://www.w3.org/2000/svg">
  <mask id="mask0_89_9877" style="mask-type:alpha" maskUnits="userSpaceOnUse" x="1" y="15" width="46" height="64">
    <path d="M24.875 22.9996C12.1413 25.1868 1.59815 10.5 1.59815 17.4996L1 61.3256L1.59815 67.622L3.99077 73.5721L10.5705 76.4054L14.7575 77.6962C17.5489 78.1159 23.371 78.9554 24.328 78.9554C25.2851 78.9554 29.1133 78.1159 30.9077 77.6962C32.104 77.2764 35.2144 76.311 38.0856 75.8073C40.9567 75.3036 44.4659 71.3998 45.8616 69.5109L46.4597 65.1034L45.8616 15C43.6683 16.8889 36.5183 20.9997 24.875 22.9996Z" fill="#D9D9D9" />
  </mask>
  <g mask="url(#mask0_89_9877)">
    <rect x="1" y="64" width="46" height="27" fill="#F93E51" />
  </g>
  <g clip-path="url(#clip0_89_9877)">
    <path d="M47.9444 42.9636C47.9444 50.4325 47.8372 57.9045 47.9886 65.3703C48.0674 69.3957 46.342 72.3013 43.257 74.6033C40.008 77.0241 36.2764 78.3753 32.3429 79.1509C25.5421 80.4927 18.7791 80.28 12.1361 78.2439C9.08262 77.3056 6.22792 75.9638 3.79906 73.8651C1.3702 71.7664 -0.00195312 69.1861 -0.00195312 65.8395C0.0579798 50.3793 0.0201274 34.9223 0.042208 19.4621C0.0602918 18.6632 0.189798 17.8707 0.427041 17.107C0.818182 15.7621 1.33234 14.4547 1.75187 13.1348C1.93143 12.5189 2.07051 11.892 2.16825 11.2582C2.65402 8.44328 4.37631 6.42905 6.61906 4.80266C9.64095 2.61327 13.0918 1.40912 16.713 0.736662C22.9745 -0.433093 29.1822 -0.201644 35.267 1.78757C38.0776 2.70398 40.6925 4.00822 42.8596 6.05686C44.5795 7.6142 45.6665 9.74085 45.9162 12.037C46.055 13.2474 46.5817 14.4328 47.0423 15.5869C47.7153 17.3594 48.0304 19.2456 47.9697 21.1386C47.9192 28.3917 47.9444 35.6761 47.9444 42.9636ZM2.2061 22.5179V23.3217C2.2061 36.2495 2.2061 49.1825 2.2061 62.1207C2.19312 63.5828 2.65913 65.0096 3.53409 66.1867C5.06396 68.301 7.19 69.6709 9.52739 70.7374C13.9435 72.7454 18.5962 73.5524 23.4066 73.6024C29.2012 73.6618 34.7623 72.736 39.9481 69.993C40.6515 69.6209 41.2761 69.771 41.5884 70.334C41.9007 70.897 41.7114 71.5194 40.9922 71.8759C39.7923 72.5114 38.5557 73.0764 37.289 73.568C30.3494 76.0483 23.2615 76.3829 16.0695 75.038C11.6534 74.2154 7.48336 72.7204 3.95993 69.8148C3.52147 69.452 3.11141 69.0547 2.69818 68.6732C2.88878 69.3032 3.18409 69.8973 3.57194 70.4309C5.22168 72.6578 7.49282 74.106 10.0132 75.1225C18.2934 78.5035 26.7723 78.6411 35.327 76.1202C38.5507 75.1819 41.5284 73.6931 43.8185 71.1565C44.4872 70.4153 44.9635 69.4989 45.5282 68.6544C44.7301 68.6544 44.1813 68.5981 43.8501 67.9851C43.5188 67.372 43.8721 66.9592 44.216 66.5119C45.2598 65.2015 45.8167 63.5746 45.7931 61.9049C45.7584 49.0813 45.7742 36.2578 45.7742 23.4155V22.3896C45.6786 22.4016 45.5845 22.4236 45.4935 22.4553C44.9225 22.79 44.3895 22.79 43.951 22.2489C43.5125 21.7078 43.7081 21.2449 44.0772 20.7632C44.3926 20.3504 44.6513 19.8969 44.9604 19.4778C45.7868 18.3549 45.4935 17.2884 44.8752 16.1968C44.462 16.7348 44.0961 17.2759 43.6671 17.7607C41.6609 20.0376 39.1122 21.4826 36.2733 22.5179C29.7374 24.8855 23.0249 25.1921 16.2399 23.7971C11.0383 22.7243 6.26262 20.7914 3.10825 16.2093C2.29232 17.4604 2.33648 18.6771 3.24074 19.8593C3.52463 20.2347 3.78329 20.6413 4.09872 20.9791C5.60536 22.6549 7.47394 23.972 9.56524 24.8324C17.1988 28.1477 25.0847 28.4167 33.1189 26.637C35.4979 26.1069 37.7895 25.2467 39.926 24.0817C40.7525 23.6313 41.5032 23.9034 41.683 24.6822C41.7577 24.951 41.7219 25.2381 41.5836 25.4808C41.4452 25.7235 41.2156 25.9019 40.9449 25.9771C38.7368 26.8654 36.5887 27.9131 34.3207 28.5574C29.0592 30.0462 23.6684 30.2057 18.2618 29.4958C14.1927 28.9547 10.2308 27.91 6.68846 25.7675C5.12389 24.8199 3.71389 23.6126 2.2061 22.5179ZM23.6558 22.4366C26.6271 22.4876 29.5887 22.0868 32.4376 21.248C35.1093 20.4192 37.6423 19.3151 39.5443 17.1633C41.336 15.1365 41.437 12.8471 39.7652 10.7109C38.4813 9.05631 36.7401 7.98977 34.8254 7.22974C28.0877 4.56495 21.2616 4.47738 14.4009 6.73557C12.2181 7.45494 10.2087 8.51209 8.60631 10.201C6.49289 12.428 6.39826 15.1084 8.559 17.279C9.59341 18.3053 10.7781 19.171 12.073 19.8468C15.7699 21.7766 19.8012 22.3709 23.6716 22.424L23.6558 22.4366ZM4.70436 14.1982C5.10812 10.7797 6.19953 8.81548 9.17095 6.9201C10.6666 5.96978 12.2641 5.18722 13.934 4.58685C18.1104 3.09181 22.4508 2.74151 26.8669 3.10745C30.7468 3.42022 34.4658 4.30535 37.8473 6.28518C40.8976 8.06796 43.1719 10.4169 43.235 14.2483C43.3616 14.0556 43.4574 13.8445 43.5188 13.6227C43.9542 11.9526 43.5693 10.4325 42.6041 9.04067C41.4117 7.32357 39.7652 6.15069 37.9198 5.21238C34.4721 3.43898 30.7689 2.6164 26.9206 2.31927C22.1638 1.95021 17.4985 2.3787 12.9814 3.95505C10.2907 4.89336 7.77672 6.16946 5.8841 8.3776C4.41416 10.0916 3.83691 12.0089 4.70436 14.1982Z" fill="#0A0909" />
    <path d="M23.672 22.4237C19.8016 22.3705 15.7861 21.7762 12.0892 19.8339C10.7943 19.1581 9.60965 18.2924 8.57524 17.2661C6.42081 15.0955 6.50913 12.4151 8.62256 10.1881C10.225 8.4992 12.2343 7.44204 14.4171 6.72267C21.2779 4.46448 28.1039 4.55205 34.8417 7.21684C36.7564 7.97687 38.4976 9.04341 39.7814 10.698C41.4374 12.8342 41.3586 15.1236 39.5606 17.1504C37.668 19.3022 35.1255 20.4063 32.4538 21.2351C29.605 22.0739 26.6433 22.4747 23.672 22.4237ZM26.6592 18.4515C26.7318 18.4515 26.9431 18.4515 27.1482 18.4171L35.4568 17.2004C37.3147 16.9314 38.6553 15.4458 38.6111 13.7068C38.5777 12.8578 38.2381 12.0489 37.654 11.4273C37.0699 10.8056 36.2801 10.4125 35.4284 10.3195C32.7345 9.94732 30.0407 9.58138 27.35 9.17165C24.5458 8.75567 22.1169 10.6323 21.8551 13.5098C21.6217 16.0619 23.855 18.4233 26.6592 18.4515Z" fill="#EFEFEF" />
    <path d="M4.7039 14.1979C3.83645 12.0085 4.4137 10.0912 5.88364 8.37726C7.77626 6.16911 10.2998 4.89301 12.981 3.95471C17.498 2.39086 22.1633 1.94986 26.9201 2.31893C30.7684 2.61606 34.4717 3.44489 37.9194 5.20891C39.7521 6.14722 41.4113 7.3201 42.6036 9.0372C43.5689 10.429 43.9537 11.9491 43.5184 13.6193C43.4569 13.8411 43.3611 14.0521 43.2345 14.2448C43.1714 10.4134 40.8971 8.06449 37.8468 6.28171C34.4654 4.30501 30.7464 3.43864 26.8665 3.1071C22.4504 2.74116 18.11 3.1071 13.9336 4.5865C12.2636 5.18687 10.6661 5.96943 9.17049 6.91975C6.19907 8.81513 5.10766 10.7793 4.7039 14.1979Z" fill="#EFEFEF" />
    <path d="M26.66 18.4513C23.8558 18.4326 21.613 16.0712 21.8559 13.519C22.1177 10.6321 24.5466 8.7555 27.3508 9.17461C30.0415 9.58434 32.7353 9.95028 35.4292 10.3225C36.2831 10.4143 37.0752 10.8076 37.6607 11.4307C38.2462 12.0538 38.5861 12.865 38.6182 13.716C38.6561 15.455 37.3155 16.9407 35.4639 17.2096L27.1489 18.4075C26.9439 18.4513 26.7326 18.4513 26.66 18.4513ZM26.7357 16.262L28.9438 15.9492C31.0635 15.6364 33.1864 15.3424 35.3061 15.0109C35.4649 14.9987 35.6196 14.9554 35.7613 14.8835C35.9031 14.8117 36.0291 14.7127 36.132 14.5923C36.235 14.4719 36.3128 14.3325 36.3611 14.1821C36.4094 14.0317 36.4271 13.8733 36.4133 13.716C36.4145 13.4134 36.3011 13.1214 36.0954 12.8978C35.8898 12.6742 35.607 12.5354 35.303 12.5087C34.8141 12.4274 34.322 12.3586 33.8299 12.2867C31.502 11.952 29.1772 11.5923 26.843 11.2952C26.4964 11.2543 26.1451 11.2851 25.8112 11.3858C25.4772 11.4864 25.168 11.6546 24.903 11.8797C24.6379 12.1049 24.4229 12.3821 24.2714 12.6939C24.12 13.0056 24.0354 13.3452 24.023 13.691C23.9725 15.0672 25.1712 16.2776 26.7357 16.262Z" fill="#0A0909" />
    <path d="M26.7349 16.2638C25.1577 16.2638 23.9559 15.069 24.0221 13.6897C24.0345 13.3439 24.1191 13.0043 24.2706 12.6926C24.4221 12.3808 24.6371 12.1036 24.9021 11.8784C25.1672 11.6533 25.4764 11.4851 25.8103 11.3845C26.1442 11.2839 26.4956 11.253 26.8421 11.2939C29.1764 11.6067 31.5011 11.9507 33.8291 12.2854C34.3211 12.3573 34.8132 12.4261 35.3022 12.5074C35.6077 12.5365 35.891 12.679 36.0951 12.9064C36.2992 13.1337 36.4092 13.4292 36.403 13.7335C36.4168 13.8907 36.3991 14.0491 36.3508 14.1996C36.3025 14.35 36.2247 14.4894 36.1217 14.6098C36.0188 14.7302 35.8928 14.8292 35.751 14.901C35.6093 14.9729 35.4546 15.0161 35.2958 15.0283C33.1761 15.3411 31.0532 15.6539 28.9335 15.9667L26.7349 16.2638ZM27.4415 13.7616C27.4415 14.1495 27.3185 14.5999 27.473 14.9126C27.6698 15.3045 28.0074 15.6091 28.4193 15.7665C28.5411 15.8039 28.67 15.8132 28.7959 15.7935C28.9219 15.7738 29.0416 15.7257 29.1458 15.6528C29.25 15.58 29.336 15.4844 29.3971 15.3734C29.4582 15.2624 29.4927 15.139 29.4981 15.0127C29.577 14.1899 29.577 13.3615 29.4981 12.5387C29.4477 11.9726 28.984 11.7067 28.4225 11.738C28.2964 11.7334 28.1706 11.7539 28.0526 11.7982C27.9346 11.8425 27.8267 11.9098 27.7353 11.996C27.6439 12.0823 27.5708 12.1858 27.5204 12.3005C27.4699 12.4152 27.4431 12.5387 27.4415 12.6638C27.4222 13.0295 27.4222 13.3959 27.4415 13.7616Z" fill="#EFEFEF" />
    <path d="M27.4421 13.7593C27.4232 13.3967 27.4232 13.0334 27.4421 12.6708C27.445 12.546 27.4729 12.4229 27.5243 12.3089C27.5757 12.1949 27.6495 12.0922 27.7415 12.0068C27.8335 11.9215 27.9417 11.8552 28.0598 11.8118C28.1779 11.7685 28.3036 11.749 28.4295 11.7544C28.9909 11.7231 29.4546 11.989 29.5051 12.5551C29.584 13.3779 29.584 14.2063 29.5051 15.0291C29.4978 15.1552 29.4614 15.2779 29.3988 15.3878C29.3362 15.4978 29.249 15.592 29.1439 15.6633C29.0388 15.7346 28.9186 15.781 28.7925 15.7991C28.6665 15.8171 28.538 15.8062 28.4168 15.7672C28.0049 15.6099 27.6673 15.3053 27.4705 14.9134C27.316 14.6006 27.439 14.1502 27.439 13.7624L27.4421 13.7593Z" fill="#0A0909" />
  </g>
  <defs>
    <clipPath id="clip0_89_9877">
      <rect width="48" height="80" fill="white" />
    </clipPath>
  </defs>
</svg>