<svg xmlns="http://www.w3.org/2000/svg" width="26" height="24" viewBox="0 0 26 24" fill="none">
  <g filter="url(#filter0_d_334_17275)">
    <path d="M9.539 22.5001C18.596 22.5001 23.5505 14.9956 23.5505 8.49906C23.5505 8.28906 23.5505 8.07606 23.5415 7.86606C24.5061 7.16779 25.3386 6.30329 26 5.31306C25.099 5.71034 24.1441 5.97217 23.1665 6.09006C24.1963 5.47452 24.9676 4.50602 25.337 3.36456C24.3695 3.93775 23.3105 4.34012 22.2065 4.55406C21.4643 3.7636 20.4821 3.23994 19.4121 3.0642C18.3421 2.88846 17.2441 3.07045 16.288 3.58197C15.3319 4.09349 14.5712 4.90601 14.1237 5.89365C13.6761 6.8813 13.5668 7.98896 13.8125 9.04506C11.8546 8.94689 9.93922 8.43826 8.19056 7.55218C6.4419 6.66609 4.89903 5.42233 3.662 3.90156C3.03401 4.98619 2.84236 6.26916 3.12597 7.48996C3.40958 8.71076 4.14718 9.77786 5.189 10.4746C4.40831 10.448 3.64478 10.2384 2.96 9.86256V9.93006C2.96135 11.0663 3.35496 12.1672 4.07431 13.0467C4.79366 13.9262 5.79462 14.5304 6.908 14.7571C6.48539 14.8735 6.04884 14.9315 5.6105 14.9296C5.30148 14.9305 4.99307 14.9019 4.6895 14.8441C5.00418 15.8221 5.61691 16.6773 6.44187 17.2898C7.26683 17.9022 8.2627 18.2413 9.29 18.2596C7.54483 19.6303 5.3891 20.3737 3.17 20.3701C2.77898 20.3717 2.38823 20.3492 2 20.3026C4.25227 21.7385 6.86795 22.5009 9.539 22.5001Z" fill="white"/>
  </g>
  <defs>
    <filter id="filter0_d_334_17275" x="0.5" y="0" width="25.5" height="25.5" filterUnits="userSpaceOnUse" color-interpolation-filters="sRGB">
      <feFlood flood-opacity="0" result="BackgroundImageFix"/>
      <feColorMatrix in="SourceAlpha" type="matrix" values="0 0 0 0 0 0 0 0 0 0 0 0 0 0 0 0 0 0 127 0" result="hardAlpha"/>
      <feOffset dx="-1.5" dy="1.5"/>
      <feComposite in2="hardAlpha" operator="out"/>
      <feColorMatrix type="matrix" values="0 0 0 0 0.0375 0 0 0 0 0.0359375 0 0 0 0 0.0359375 0 0 0 1 0"/>
      <feBlend mode="normal" in2="BackgroundImageFix" result="effect1_dropShadow_334_17275"/>
      <feBlend mode="normal" in="SourceGraphic" in2="effect1_dropShadow_334_17275" result="shape"/>
    </filter>
  </defs>
</svg>